<svg xmlns="http://www.w3.org/2000/svg" version="1.1" xmlns:xlink="http://www.w3.org/1999/xlink" xmlns:svgjs="http://svgjs.com/svgjs" width="512" height="512" x="0" y="0" viewBox="0 0 682.667 682.667" style="enable-background:new 0 0 512 512" xml:space="preserve" class=""><g><defs><clipPath id="a" clipPathUnits="userSpaceOnUse"><path d="M0 512h512V0H0Z" fill="#ffffff" data-original="#000000"></path></clipPath></defs><g clip-path="url(#a)" transform="matrix(1.33333 0 0 -1.33333 0 682.667)"><path d="M0 0v239.875" style="stroke-width:40;stroke-linecap:round;stroke-linejoin:round;stroke-miterlimit:10;stroke-dasharray:none;stroke-opacity:1" transform="translate(256 252.125)" fill="none" stroke="#ffffff" stroke-width="40" stroke-linecap="round" stroke-linejoin="round" stroke-miterlimit="10" stroke-dasharray="none" stroke-opacity="" data-original="#000000" class=""></path><path d="M0 0c-11.046 0-20 8.954-20 20s8.954 20 20 20 20-8.954 20-20S11.046 0 0 0" style="fill-opacity:1;fill-rule:nonzero;stroke:none" transform="translate(256 155)" fill="#ffffff" data-original="#000000"></path><path d="M0 0c-11.046 0-20 8.954-20 20s8.954 20 20 20 20-8.954 20-20S11.046 0 0 0" style="fill-opacity:1;fill-rule:nonzero;stroke:none" transform="translate(256 78)" fill="#ffffff" data-original="#000000"></path><path d="M0 0c-11.046 0-20 8.954-20 20s8.954 20 20 20 20-8.954 20-20S11.046 0 0 0" style="fill-opacity:1;fill-rule:nonzero;stroke:none" transform="translate(256)" fill="#ffffff" data-original="#000000"></path><path d="m0 0 236-144.125" style="stroke-width:40;stroke-linecap:round;stroke-linejoin:round;stroke-miterlimit:10;stroke-dasharray:none;stroke-opacity:1" transform="translate(256 252.125)" fill="none" stroke="#ffffff" stroke-width="40" stroke-linecap="round" stroke-linejoin="round" stroke-miterlimit="10" stroke-dasharray="none" stroke-opacity="" data-original="#000000" class=""></path><path d="m0 0 236 144.125" style="stroke-width:40;stroke-linecap:round;stroke-linejoin:round;stroke-miterlimit:10;stroke-dasharray:none;stroke-opacity:1" transform="translate(20 108)" fill="none" stroke="#ffffff" stroke-width="40" stroke-linecap="round" stroke-linejoin="round" stroke-miterlimit="10" stroke-dasharray="none" stroke-opacity="" data-original="#000000" class=""></path><path d="M0 0c-5.854 9.367-3.007 21.705 6.36 27.56 9.368 5.854 21.706 3.006 27.56-6.36 5.854-9.367 3.007-21.706-6.359-27.56h-.001C18.193-12.214 5.854-9.367 0 0m-67-42c-5.854 9.367-3.007 21.705 6.36 27.56 9.368 5.854 21.706 3.006 27.56-6.36 5.854-9.367 3.007-21.706-6.359-27.56h-.001C-48.807-54.214-61.146-51.367-67-42m-68.994-42c-5.855 9.367-3.007 21.705 6.359 27.56h.001c9.366 5.854 21.705 3.006 27.56-6.36 5.853-9.367 3.007-21.706-6.361-27.56-9.367-5.854-21.706-3.007-27.559 6.36" style="fill-opacity:1;fill-rule:nonzero;stroke:none" transform="translate(444.037 364.403)" fill="#ffffff" data-original="#000000"></path><path d="M0 0h-.001C-9.367 5.854-12.215 18.193-6.36 27.56c5.853 9.366 18.192 12.214 27.559 6.359 9.367-5.854 12.214-18.192 6.361-27.559C21.705-3.007 9.366-5.854 0 0m67.994-42c-9.367 5.854-12.214 18.193-6.36 27.56 5.854 9.366 18.193 12.214 27.559 6.359h.001c9.367-5.854 12.214-18.192 6.36-27.559S77.361-47.854 67.994-42m68-42c-9.367 5.854-12.214 18.193-6.36 27.56 5.854 9.366 18.193 12.214 27.559 6.359h.001c9.367-5.854 12.214-18.192 6.36-27.559s-18.193-12.214-27.56-6.36" style="fill-opacity:1;fill-rule:nonzero;stroke:none" transform="translate(37.403 358.043)" fill="#ffffff" data-original="#000000"></path></g></g></svg>