<svg xmlns="http://www.w3.org/2000/svg" version="1.1" xmlns:xlink="http://www.w3.org/1999/xlink" xmlns:svgjs="http://svgjs.com/svgjs" width="512" height="512" x="0" y="0" viewBox="0 0 682.667 682.667" style="enable-background:new 0 0 512 512" xml:space="preserve" class=""><g><defs><clipPath id="a" clipPathUnits="userSpaceOnUse"><path d="M0 512h512V0H0Z" fill="#ffffff" data-original="#000000" class=""></path></clipPath></defs><g clip-path="url(#a)" transform="matrix(1.33333 0 0 -1.33333 0 682.667)"><path d="M0 0c-2.105 0-4.206.012-6.303.032L-32.332 29.95c-5.461 6.278-14.976 6.939-21.249 1.476-6.274-5.462-6.936-14.978-1.475-21.254l7.3-8.391c-44.29 3.351-84.871 11.358-117.35 23.364-38.017 14.051-60.712 32.305-60.712 48.829 0 16.522 22.695 34.776 60.712 48.828 19.159 7.081 41.135 12.773 65.028 16.938-2.084-20.862-3.165-42.571-3.165-64.703 0-3.917.034-7.902.103-11.849.143-8.229 6.857-14.802 15.054-14.802l.268.002c8.317.145 14.941 7.006 14.797 15.325a650.05 650.05 0 0 0-.099 11.324c0 23.804 1.294 47.031 3.784 69.095 22.135 2.51 45.444 3.814 69.336 3.814 10.466 0 14.901-.136 24.722-.604 8.309-.356 15.365 6.021 15.762 14.332.395 8.31-6.02 15.369-14.329 15.764-10.212.488-15.151.638-26.155.638-22.223 0-44.019-1.09-64.96-3.192 4.169 23.997 9.874 46.066 16.98 65.298 14.048 38.023 32.298 60.724 48.817 60.724 12.605 0 26.217-13.23 38.201-36.388l-15.581-36.215c-3.288-7.643.24-16.505 7.881-19.793a15.002 15.002 0 0 1 5.947-1.232c5.835 0 11.389 3.412 13.842 9.115l3.677 8.545c12.938-41.789 19.989-94.274 19.989-149.901 0-24.512-1.374-48.408-4.011-71.055C48.216 1.364 24.413 0 0 0m153.698 158.26c-7.979 2.337-16.348-2.24-18.686-10.226-2.338-7.984 2.239-16.352 10.222-18.69 48.953-14.337 80.583-36.071 80.583-55.37 0-16.524-22.695-34.778-60.711-48.829-18.757-6.934-40.223-12.531-63.539-16.671 2.208 21.429 3.35 43.774 3.35 66.563 0 60.738-8.105 118.313-22.935 163.827l11.834-4.48a15.022 15.022 0 0 1 5.33-.98c6.082 0 11.809 3.71 14.088 9.736 2.946 7.781-.974 16.477-8.753 19.422l-37.966 14.375c-6.037 11.869-12.617 21.92-19.686 30.013C37.23 317.938 21.46 331.036.837 331.036c-20.622 0-36.393-13.098-45.991-24.086-11.812-13.521-22.269-32.471-31.082-56.324-8.614-23.313-15.309-50.352-19.881-79.721-29.257-4.571-56.196-11.253-79.432-19.842-23.847-8.814-42.793-19.273-56.311-31.087-10.986-9.601-24.081-25.375-24.081-46.002 0-20.628 13.095-36.403 24.081-46.002 13.518-11.815 32.464-22.275 56.311-31.089 35.223-13.02 78.948-21.665 126.379-25.203l-8.18-7.786c-6.025-5.737-6.261-15.272-.527-21.299a15.017 15.017 0 0 1 10.913-4.679c3.731 0 7.466 1.377 10.381 4.151l29.254 27.847A686.94 686.94 0 0 1 0-30.13c22.687 0 44.934 1.131 66.276 3.321-4.135-23.221-9.715-44.604-16.622-63.297-14.049-38.025-32.298-60.726-48.817-60.726-13.709 0-28.964 15.985-41.852 43.856-3.493 7.551-12.445 10.844-19.993 7.35-7.55-3.493-10.839-12.446-7.347-19.998 23.443-50.696 50.566-61.338 69.192-61.338 20.623 0 36.393 13.099 45.992 24.086 11.812 13.522 22.268 32.472 31.08 56.324 8.427 22.806 15.015 49.181 19.577 77.811 28.728 4.565 55.192 11.17 78.063 19.624 23.847 8.814 42.793 19.274 56.311 31.089 10.986 9.599 24.081 25.374 24.081 46.002 0 35.044-36.311 64.977-102.243 84.286" style="fill-opacity:1;fill-rule:nonzero;stroke:none" transform="translate(255.947 180.962)" fill="#ffffff" data-original="#000000" class=""></path></g></g></svg>