<svg xmlns="http://www.w3.org/2000/svg" version="1.1" xmlns:xlink="http://www.w3.org/1999/xlink" xmlns:svgjs="http://svgjs.com/svgjs" width="512" height="512" x="0" y="0" viewBox="0 0 24 24" style="enable-background:new 0 0 512 512" xml:space="preserve" class=""><g><path d="M19.5 9.5A1.5 1.5 0 0 0 18 11v1.75a.25.25 0 0 1-.5 0V10a1.5 1.5 0 0 0-3 0v2.75a.25.25 0 0 1-.5 0V9a1.5 1.5 0 0 0-3 0v3.75a.25.25 0 0 1-.5 0V2.5a1.5 1.5 0 0 0-3 0v11.693L4.283 12.22H4.28A1.498 1.498 0 0 0 2 13.5c0 .29.08.57.23.8l-.002-.004 4.609 7.749A4 4 0 0 0 10.275 24H17a4 4 0 0 0 4-4v-9a1.5 1.5 0 0 0-1.5-1.5z" fill="#ffffff" data-original="#000000"></path></g></svg>