<svg xmlns="http://www.w3.org/2000/svg" version="1.1" xmlns:xlink="http://www.w3.org/1999/xlink" xmlns:svgjs="http://svgjs.com/svgjs" width="512" height="512" x="0" y="0" viewBox="0 0 24 24" style="enable-background:new 0 0 512 512" xml:space="preserve"><g><g data-name="Layer 2"><circle cx="12" cy="12" r="2" fill="#ffffff" data-original="#000000" opacity="1"></circle><path d="M19.794 6.345 13 2.423a2.009 2.009 0 0 0-2 0L4.205 6.346a2.005 2.005 0 0 0-1 1.731v7.846a2.007 2.007 0 0 0 1 1.732L11 21.577a2.009 2.009 0 0 0 2 0l6.795-3.923a2.005 2.005 0 0 0 1-1.731V8.077a2.007 2.007 0 0 0-1-1.732zM12 16a4 4 0 1 1 4-4 4.004 4.004 0 0 1-4 4z" fill="#ffffff" data-original="#000000" opacity="1"></path></g></g></svg>