<svg height="512" viewBox="0 0 24 24" width="512" xmlns="http://www.w3.org/2000/svg"><g id="Layer_2" data-name="Layer 2"><path d="m11 1.3a10.747 10.747 0 0 0 -8.414 15.888 1.182 1.182 0 0 1 .048.985l-.618 1.648a1.749 1.749 0 0 0 2.161 2.284l1.969-.615a1.243 1.243 0 0 1 .925.053 10.605 10.605 0 0 0 4.922 1.208 11.139 11.139 0 0 0 2.264-.235 10.753 10.753 0 0 0 -3.257-21.216z" fill="#49adf4"/><g fill="#fff"><path d="m12 11a1.252 1.252 0 0 0 -1.25 1.25v4.75a1.25 1.25 0 0 0 2.5 0v-4.75a1.252 1.252 0 0 0 -1.25-1.25z"/><circle cx="12" cy="8.25" r="1.75"/></g></g></svg>