<svg id="Capa_1" enable-background="new 0 0 512 512" height="512" viewBox="0 0 512 512" width="512" xmlns="http://www.w3.org/2000/svg"><g><g id="Rotate_2_"><g><path d="m259.09 512c-22.852 0-45.527-4.032-67.383-9.994-4.16-1.143-7.617-3.999-9.521-7.866-1.875-3.867-2.021-8.364-.381-12.349l23.203-56.045c2.812-6.782 10.107-10.562 17.197-8.877 24.023 5.479 49.746 5.479 73.77 0 7.031-1.685 14.385 2.095 17.197 8.877l23.203 56.045c1.641 3.984 1.494 8.481-.381 12.349-1.904 3.867-5.361 6.724-9.521 7.866-21.855 5.962-44.531 9.994-67.383 9.994z" fill="#66b3ff"/></g><g><path d="m373.084 478.744c-4.072-1.392-7.354-4.482-8.994-8.452l-23.203-56.03c-2.812-6.753-.322-14.546 5.859-18.442 20.947-13.169 38.994-31.201 52.178-52.163 3.896-6.211 11.689-8.643 18.428-5.874l56.045 23.217c3.984 1.655 7.061 4.922 8.438 9.009 1.406 4.072.967 8.555-1.143 12.29-22.676 39.683-55.635 72.627-95.303 95.273-3.766 2.173-8.304 2.543-12.305 1.172z" fill="#4d88ff"/></g><g><path d="m132.791 477.572c-39.668-22.646-72.627-55.591-95.303-95.273-2.109-3.735-2.549-8.218-1.143-12.29 1.377-4.087 4.453-7.354 8.438-9.009l56.045-23.218c6.738-2.769 14.531-.337 18.428 5.874 13.184 20.962 31.23 38.994 52.178 52.163 6.182 3.896 8.672 11.689 5.859 18.442l-23.203 56.03c-1.641 3.97-4.922 7.061-8.994 8.452-4 1.372-8.538 1.002-12.305-1.171z" fill="#66b3ff"/></g><g><g><g><g><path d="m20.965 332.89c-3.867-1.89-6.738-5.361-7.88-9.521-5.977-21.886-8.995-44.547-8.995-67.369 0-140.61 114.404-256 255-256 85.723 0 165.996 44.594 212.988 115.712l13.33-7.705c4.805-2.739 10.693-2.637 15.41.249 4.688 2.915 7.412 8.188 7.061 13.711l-6.943 107.944c-.322 4.995-3.135 9.521-7.471 12.026-4.365 2.52-9.638 2.681-14.15.454l-96.973-47.944c-4.951-2.446-8.174-7.441-8.35-12.964-.176-5.537 2.725-10.708 7.5-13.477l12.422-7.163c-30.761-43.417-81.152-69.843-134.824-69.843-90.967 0-165 74.019-165 165 0 12.48 1.377 24.888 4.131 36.885 1.641 7.134-2.109 14.399-8.877 17.197l-56.045 23.203c-4.031 1.664-8.56 1.491-12.334-.395z" fill="#66b3ff"/></g></g></g></g></g><g fill="#4d88ff"><path d="m393.915 160.844-12.422 7.163c-4.775 2.769-7.676 7.939-7.5 13.477.176 5.522 3.398 10.518 8.35 12.964l96.973 47.944c4.512 2.227 9.785 2.065 14.15-.454 4.337-2.505 7.149-7.031 7.471-12.026l6.943-107.944c.352-5.522-2.373-10.796-7.061-13.711-4.717-2.886-10.605-2.988-15.41-.249l-13.33 7.705c-46.993-71.119-127.266-115.713-212.989-115.713v91c53.672 0 104.063 26.426 134.825 69.844z"/><path d="m326.473 502.006c4.16-1.143 7.617-3.999 9.521-7.866 1.875-3.867 2.021-8.364.381-12.349l-23.203-56.045c-2.812-6.782-10.166-10.562-17.197-8.877-12.012 2.739-24.448 4.109-36.885 4.109v91.022c22.852 0 45.528-4.032 67.383-9.994z"/></g></g></svg>