<svg xmlns="http://www.w3.org/2000/svg" version="1.1" xmlns:xlink="http://www.w3.org/1999/xlink" width="512" height="512" x="0" y="0" viewBox="0 0 64 64" style="enable-background:new 0 0 512 512" xml:space="preserve" class=""><g><path d="M48 1a9.01 9.01 0 0 0-9 9h5a4 4 0 1 1 4 4 2.5 2.5 0 0 0-2.5 2.5V26h5v-7.353A9 9 0 0 0 48 1z" fill="#ffffff" opacity="1" data-original="#000000"></path><circle cx="48" cy="30.5" r="2.5" fill="#ffffff" opacity="1" data-original="#000000"></circle><path d="M6 36h6.071a7 7 0 0 1 13.858 0H31v-6a1 1 0 0 1 1-1 5 5 0 0 0 0-10 1 1 0 0 1-1-1v-7H6z" fill="#ffffff" opacity="1" data-original="#000000"></path><path d="M6 63h25v-6.071a7 7 0 0 1 0-13.858V38h-6a1 1 0 0 1-1-1 5 5 0 0 0-10 0 1 1 0 0 1-1 1H6z" fill="#ffffff" opacity="1" data-original="#000000"></path><path d="M58 38h-6.071a7 7 0 0 1-13.858 0H33v6a1 1 0 0 1-1 1 5 5 0 0 0 0 10 1 1 0 0 1 1 1v7h25z" fill="#ffffff" opacity="1" data-original="#000000"></path></g></svg>