<svg id="Layer_1" enable-background="new 0 0 64 64" viewBox="0 0 64 64" xmlns="http://www.w3.org/2000/svg"><g><g fill="#323f93"><path d="m18.25 3.77h8.95c1.04 0 1.88-.84 1.88-1.88s-.85-1.89-1.88-1.89h-8.95c-1.04 0-1.88.84-1.88 1.88-.01 1.04.84 1.89 1.88 1.89z"/><path d="m7.23 8.29c1.04 0 1.88-.84 1.88-1.88 0-1.46 1.18-2.64 2.64-2.64 1.04 0 1.88-.84 1.88-1.88s-.84-1.88-1.88-1.88c-3.53 0-6.4 2.87-6.4 6.41-.01 1.02.84 1.87 1.88 1.87z"/><path d="m7.23 20.05c1.04 0 1.88-.84 1.88-1.88v-5.27c0-1.04-.84-1.88-1.88-1.88s-1.88.84-1.88 1.88v5.27c-.01 1.04.84 1.88 1.88 1.88z"/><path d="m7.23 37.63c1.04 0 1.88-.84 1.88-1.88v-9.15c0-1.04-.84-1.88-1.88-1.88s-1.88.84-1.88 1.88v9.15c-.01 1.03.84 1.88 1.88 1.88z"/><path d="m7.23 53.96c1.04 0 1.88-.84 1.88-1.88v-7.94c0-1.04-.84-1.88-1.88-1.88s-1.88.84-1.88 1.88v7.94c-.01 1.04.84 1.88 1.88 1.88z"/><path d="m16.73 60.24h-4.99c-1.46 0-2.64-1.18-2.64-2.64 0-1.04-.84-1.88-1.88-1.88s-1.88.84-1.88 1.88c0 3.53 2.87 6.4 6.4 6.4h4.99c1.04 0 1.88-.84 1.88-1.88.01-1.04-.84-1.88-1.88-1.88z"/><path d="m29.44 60.24h-5.67c-1.04 0-1.88.84-1.88 1.88s.84 1.88 1.88 1.88h5.67c1.04 0 1.88-.84 1.88-1.88s-.84-1.88-1.88-1.88z"/><path d="m44.41 60.24h-7.41c-1.04 0-1.88.84-1.88 1.88s.84 1.88 1.88 1.88h7.41c1.04 0 1.88-.84 1.88-1.88.01-1.04-.84-1.88-1.88-1.88z"/><path d="m56.77 55.71c-1.04 0-1.88.84-1.88 1.88 0 1.46-1.18 2.64-2.64 2.64-1.04 0-1.88.84-1.88 1.88s.84 1.88 1.88 1.88c3.53 0 6.4-2.87 6.4-6.4.01-1.03-.84-1.88-1.88-1.88z"/><path d="m56.77 44.37c-1.04 0-1.88.84-1.88 1.88v6.58c0 1.04.84 1.88 1.88 1.88s1.88-.84 1.88-1.88v-6.58c.01-1.03-.84-1.88-1.88-1.88z"/><path d="m56.77 27.66c-1.04 0-1.88.84-1.88 1.88v7.11c0 1.04.84 1.88 1.88 1.88s1.88-.84 1.88-1.88v-7.11c.01-1.04-.84-1.88-1.88-1.88z"/><path d="m41.88 16.51c0 1.04.84 1.88 1.88 1.88h11.12v3.96c0 1.04.84 1.88 1.88 1.88s1.88-.84 1.88-1.88v-5.84c0-.16-.02-.31-.05-.43s-.06-.22-.09-.27c-.05-.14-.11-.24-.2-.37-.04-.06-.08-.11-.18-.22l-12.79-14.38c-.02-.04-.09-.14-.21-.25-.07-.07-.14-.15-.22-.19-.32-.26-.71-.4-1.13-.4h-9.46c-1.04 0-1.88.84-1.88 1.88s.84 1.88 1.88 1.88h7.58v12.75z"/></g></g></svg>