<svg xmlns="http://www.w3.org/2000/svg" version="1.1" xmlns:xlink="http://www.w3.org/1999/xlink" width="512" height="512" x="0" y="0" viewBox="0 0 24 24" style="enable-background:new 0 0 512 512" xml:space="preserve" class=""><g><path d="M12 6c-3.309 0-6 2.691-6 6s2.691 6 6 6 6-2.691 6-6-2.691-6-6-6zm2.8 8.6a.998.998 0 0 1-1.399.2l-2-1.75a.998.998 0 0 1-.4-.8V9a1 1 0 1 1 2 0v2.75l1.6 1.45a1 1 0 0 1 .199 1.4z" fill="#ffffff" opacity="1" data-original="#000000" class=""></path><path d="M1.5 12C1.5 6.211 6.21 1.5 12 1.5c2.079 0 4.055.607 5.732 1.707L16.22 4.72A.75.75 0 0 0 16.75 6h4.5a.75.75 0 0 0 .75-.75V.75c0-.665-.806-1.004-1.28-.53l-1.914 1.914A11.89 11.89 0 0 0 12 0C5.383 0 0 5.383 0 12c0 1.173.173 2.339.513 3.466a.75.75 0 1 0 1.436-.433A10.484 10.484 0 0 1 1.5 12zM23.487 8.534a.75.75 0 1 0-1.436.433c.298.987.449 2.007.449 3.033 0 5.789-4.71 10.5-10.5 10.5-2.075 0-4.048-.604-5.722-1.7l1.505-1.522A.75.75 0 0 0 7.25 18h-4.5a.755.755 0 0 0-.75.758l.05 4.5c.006.666.819.99 1.283.519l1.878-1.899A11.885 11.885 0 0 0 12 24c6.617 0 12-5.383 12-12 0-1.173-.173-2.339-.513-3.466z" fill="#ffffff" opacity="1" data-original="#000000" class=""></path></g></svg>