<svg xmlns="http://www.w3.org/2000/svg" version="1.1" xmlns:xlink="http://www.w3.org/1999/xlink" xmlns:svgjs="http://svgjs.com/svgjs" width="512" height="512" x="0" y="0" viewBox="0 0 512 512" style="enable-background:new 0 0 512 512" xml:space="preserve" class=""><g><path d="M315.797 360.171c-.448 5.568-5.12 9.771-10.603 9.771-.32 0-.597 0-.917-.043-5.845-.491-10.219-5.632-9.728-11.52.491-5.781.917-11.712 1.323-17.707-14.805.469-28.437.661-39.872.661-16.64 0-37.76-.363-60.8-1.515C202.389 432.725 222.016 512 256 512c.192 0 1.024-.277 2.368-1.493 4.288-3.861 10.816-3.541 14.805.619 119.36-7.979 216.341-97.941 235.2-214.037-40.725 28.971-123.968 39.339-191.04 42.709-.448 6.911-.981 13.717-1.536 20.373zm-15.466 103.978c-1.813 7.467-3.733 14.379-5.717 20.672-1.429 4.544-5.632 7.467-10.176 7.467-1.067 0-2.155-.149-3.2-.491-5.632-1.771-8.725-7.765-6.955-13.376 1.856-5.867 3.605-12.309 5.291-19.264 1.387-5.739 7.168-9.259 12.885-7.851 5.738 1.366 9.258 7.126 7.872 12.843zm11.114-62.293a953.315 953.315 0 0 1-3.008 20.8c-.832 5.248-5.376 9.003-10.517 9.003-.555 0-1.131-.043-1.685-.128-5.803-.917-9.792-6.379-8.875-12.203a649.81 649.81 0 0 0 2.901-20.224c.768-5.845 5.909-9.92 11.968-9.216 5.824.768 9.963 6.123 9.216 11.968z" fill="#ffffff" data-original="#000000" class="" opacity="1"></path><path d="M193.771 318.229C214.336 319.381 235.285 320 256 320c123.285 0 256-20.032 256-64C512 120.64 406.336 9.771 273.173.875c-2.091 2.176-4.864 3.349-7.68 3.349-2.539 0-5.077-.896-7.125-2.731C257.024.277 256.192 0 256 0c-43.989 0-64 132.693-64 256 0 20.715.619 41.664 1.771 62.229zm265.536-98.645c1.344-5.739 7.019-9.387 12.821-7.979 7.765 1.792 14.955 3.712 21.483 5.696 5.632 1.707 8.811 7.659 7.104 13.312-1.387 4.587-5.632 7.552-10.219 7.552-1.024 0-2.069-.149-3.115-.448-6.101-1.856-12.843-3.627-20.096-5.333-5.717-1.323-9.301-7.061-7.978-12.8zM319.36 297.536c-.192 5.781-4.907 10.347-10.667 10.347h-.341c-5.867-.192-10.496-5.099-10.325-10.987.213-6.763.384-13.632.469-20.544.085-5.845 4.864-10.517 10.667-10.517h.171c5.867.085 10.581 4.928 10.496 10.816-.107 7.061-.278 14.016-.47 20.885zm76.181-87.723c.704-5.824 6.08-10.069 11.883-9.259 7.467.917 14.656 1.92 21.632 2.987 5.803.875 9.835 6.315 8.939 12.139-.789 5.291-5.355 9.067-10.517 9.067-.533 0-1.088-.043-1.621-.128a868.166 868.166 0 0 0-21.035-2.901c-5.846-.726-10.006-6.059-9.281-11.905zm-64.341-5.184c.363-5.888 4.885-10.347 11.307-10.005 7.36.448 14.592.981 21.653 1.536 5.867.469 10.24 5.611 9.771 11.499-.448 5.589-5.099 9.813-10.603 9.813-.299 0-.576 0-.875-.021a1184.169 1184.169 0 0 0-21.269-1.515c-5.867-.384-10.347-5.44-9.984-11.307zm-15.424-53.184c.555 6.805 1.109 13.781 1.557 20.864a10.66 10.66 0 0 1-9.963 11.349c-.235 0-.448.021-.704.021-5.568 0-10.24-4.331-10.624-9.963-.448-6.955-.96-13.781-1.515-20.48-.491-5.867 3.883-11.029 9.728-11.52 5.782-.745 11.009 3.82 11.521 9.729zm-7.403-62.506a842.223 842.223 0 0 1 2.987 20.8c.747 5.845-3.371 11.2-9.216 11.968-.469.043-.939.085-1.387.085-5.269 0-9.856-3.925-10.56-9.301a649.81 649.81 0 0 0-2.901-20.224c-.917-5.824 3.072-11.285 8.875-12.203 5.717-.981 11.285 3.051 12.202 8.875zM281.088 19.84c5.696-1.792 11.627 1.323 13.419 6.933 2.005 6.293 3.947 13.227 5.739 20.715 1.365 5.739-2.176 11.499-7.893 12.864-.832.192-1.664.299-2.475.299-4.843 0-9.216-3.285-10.368-8.171-1.664-6.955-3.435-13.355-5.312-19.2-1.814-5.653 1.279-11.648 6.89-13.44zm-3.584 172.331c7.317.107 14.549.256 21.696.469 5.867.192 10.496 5.099 10.325 11.008 0 .085-.043.128-.043.213 5.376.405 9.728 4.672 9.899 10.197.171 6.848.341 13.803.469 20.843.107 5.888-4.587 10.752-10.475 10.859h-.192c-5.803 0-10.56-4.651-10.667-10.475-.128-6.933-.299-13.803-.491-20.587 0-.256.107-.469.128-.725-6.912-.213-13.888-.363-20.949-.469-5.888-.085-10.603-4.928-10.517-10.816.086-5.867 5.121-10.325 10.817-10.517zm-65.067.448c7.125-.213 14.357-.384 21.675-.469 5.717.427 10.731 4.629 10.816 10.517s-4.608 10.731-10.517 10.816c-7.189.107-14.293.277-21.333.469h-.32c-5.76 0-10.496-4.565-10.667-10.347-.171-5.888 4.458-10.794 10.346-10.986zM3.605 297.088C21.184 405.312 106.666 490.795 214.89 508.373c-25.963-36.523-37.013-107.2-41.408-169.856-62.655-4.394-133.333-15.445-169.877-41.429z" fill="#ffffff" data-original="#000000" class="" opacity="1"></path><path d="M172.181 316.8a1235.032 1235.032 0 0 1-1.515-60.8c0-11.541.192-25.323.661-40.299-.299.043-.555.213-.853.235-7.211.448-14.293.96-21.248 1.536-.32.021-.597.021-.896.021-5.483 0-10.155-4.224-10.603-9.792-.469-5.867 3.904-11.029 9.749-11.499 7.083-.576 14.336-1.088 21.675-1.557 1.088-.043 2.048.213 3.051.427 3.328-67.136 13.696-150.635 42.731-191.445C93.248 23.381 0 128.853 0 256c0 33.963 79.275 53.589 172.181 60.8zM82.624 203.584c6.933-1.067 14.144-2.048 21.632-2.987 5.76-.853 11.157 3.413 11.904 9.28.725 5.845-3.413 11.157-9.28 11.904a763.703 763.703 0 0 0-21.035 2.901c-.533.085-1.088.128-1.621.128-5.163 0-9.728-3.776-10.517-9.067-.918-5.844 3.114-11.284 8.917-12.159zm-64.576 13.824c6.507-1.984 13.696-3.904 21.44-5.717 5.781-1.344 11.477 2.219 12.821 7.957s-2.219 11.477-7.936 12.821c-7.253 1.707-13.973 3.477-20.096 5.333-1.024.32-2.091.469-3.115.469a10.733 10.733 0 0 1-10.219-7.552 10.672 10.672 0 0 1 7.105-13.311z" fill="#ffffff" data-original="#000000" class="" opacity="1"></path></g></svg>