<svg height="512" viewBox="0 0 59 59" width="512" xmlns="http://www.w3.org/2000/svg"><g id="Page-1" fill="none" fill-rule="evenodd"><g id="022---Party-Popper"><g fill-rule="nonzero"><path id="Shape" d="m41.476 43.426c-1.864 1.865-21.631 10.819-36.523 14.486-1.35778497.3372762-2.79302273-.0614246-3.78229904-1.050701-.98927632-.9892763-1.38797712-2.424514-1.05070096-3.782299 3.667-14.892 12.622-34.658 14.486-36.523z" fill="#f0c419"/><ellipse id="Oval" cx="28.041" cy="29.991" fill="#d25627" rx="5" ry="19" transform="matrix(.707 -.707 .707 .707 -12.994 28.612)"/><circle id="Oval" cx="10.363" cy="47.669" fill="#955ba5" r="2"/><path id="Shape" d="m23.091 26.042c-.4048357.000319-.7699237-.24348-.9247586-.6175364-.1548348-.3740564-.0688653-.8045636.2177586-1.0904636l6.364-6.363c3.423-3.424 3.859-6.041 1.415-8.486-1.0259928-1.20096443-2.5935477-1.79586621-4.158-1.578-1.103324.2335998-2.115409.7816678-2.914 1.578-.3923789.37897221-1.0160848.37355237-1.4018186-.01218142-.3857338-.3857338-.3911536-1.00943969-.0121814-1.40181858 1.0870539-1.08898145 2.4723277-1.83155227 3.981-2.134 2.2081972-.34857538 4.4412641.4565209 5.919 2.134 3.284 3.284 2.808 7.091-1.415 11.314l-6.362 6.364c-.1879825.1880401-.4431123.2934746-.709.293z" fill="#955ba5"/><path id="Shape" d="m49.254 36.648c-.4043959-.0000863-.7689341-.2437275-.923678-.6173454-.1547439-.373618-.0692299-.8036603.216678-1.0896546 1.0170703-.8934885 1.6000902-2.1817076 1.6000902-3.5355s-.5830199-2.6420115-1.6000902-3.5355c-1.0292297-1.2480179-2.6805909-1.7989893-4.253-1.419-1.6316401.5630367-3.0896444 1.539059-4.232 2.833l-5.657 5.657c-.3904999.3903819-1.0235001.3903819-1.414 0-.3903819-.3904999-.3903819-1.0235001 0-1.414l5.657-5.657c1.388187-1.5493708 3.1599385-2.7058206 5.137-3.353 2.2598385-.5787453 4.6524859.1724437 6.176 1.939 3.907 3.906 1.839 8.061 0 9.9-.1870914.1880286-.441752.2932067-.707.292z" fill="#ff5364"/><path id="Shape" d="m36.527 18.263c-.4038831-.0000837-.7680662-.2431133-.9231418-.6160384s-.0705958-.8025247.2141418-1.0889616c.262-.264 6.362-6.537 1.342-12.812-.2452812-.27655364-.317993-.66586126-.1890704-1.01230572.1289226-.34644447.4384483-.5935098.804851-.6424371.3664026-.04892729.7299105.10826503.9452194.40874282 6.146 7.681-1.41 15.4-1.488 15.474-.1874042.1865868-.4415527.2906221-.706.289z" fill="#f0c419"/><circle id="Oval" cx="47" cy="17.971" fill="#ff5364" r="3"/><circle id="Oval" cx="32" cy="2" fill="#3b97d3" r="2"/><circle id="Oval" cx="56" cy="38" fill="#955ba5" r="2"/><path id="Shape" d="m47 6c-.5522847 0-1-.44771525-1-1v-1c0-.55228475.4477153-1 1-1s1 .44771525 1 1v1c0 .55228475-.4477153 1-1 1z" fill="#955ba5"/><path id="Shape" d="m50 8h-1c-.5522847 0-1-.44771525-1-1s.4477153-1 1-1h1c.5522847 0 1 .44771525 1 1s-.4477153 1-1 1z" fill="#955ba5"/><path id="Shape" d="m47 11c-.5522847 0-1-.4477153-1-1v-1c0-.55228475.4477153-1 1-1s1 .44771525 1 1v1c0 .5522847-.4477153 1-1 1z" fill="#955ba5"/><path id="Shape" d="m45 8h-1c-.5522847 0-1-.44771525-1-1s.4477153-1 1-1h1c.5522847 0 1 .44771525 1 1s-.4477153 1-1 1z" fill="#955ba5"/><path id="Shape" d="m55 23c-.5522847 0-1-.4477153-1-1v-1c0-.5522847.4477153-1 1-1s1 .4477153 1 1v1c0 .5522847-.4477153 1-1 1z" fill="#3b97d3"/><path id="Shape" d="m58 25h-1c-.5522847 0-1-.4477153-1-1s.4477153-1 1-1h1c.5522847 0 1 .4477153 1 1s-.4477153 1-1 1z" fill="#3b97d3"/><path id="Shape" d="m55 28c-.5522847 0-1-.4477153-1-1v-1c0-.5522847.4477153-1 1-1s1 .4477153 1 1v1c0 .5522847-.4477153 1-1 1z" fill="#3b97d3"/><path id="Shape" d="m53 25h-1c-.5522847 0-1-.4477153-1-1s.4477153-1 1-1h1c.5522847 0 1 .4477153 1 1s-.4477153 1-1 1z" fill="#3b97d3"/></g><path id="Shape" d="m33.52 47.64c-2.59 1.18-5.65 2.48-8.93 3.78-.49-.3-1.01-.64-1.55-1.01.2390266-2.8505503.9592151-5.6400127 2.13-8.25 2.5938777 2.1002013 5.3911038 3.9359856 8.35 5.48z"/><path id="Shape" d="m33.52 47.64c-2.59 1.18-5.65 2.48-8.93 3.78-.49-.3-1.01-.64-1.55-1.01-1.9927727-1.342385-3.8967379-2.8121126-5.7-4.4-.89-.8-1.81-1.65-2.74-2.58-1.07-1.0666667-2.0433333-2.1133333-2.92-3.14-1.8666938-2.1435674-3.56191994-4.430618-5.07-6.84 1.3-3.28 2.6-6.34 3.79-8.93 1.059694 2.0584613 2.2731357 4.0340647 3.63 5.91 1.6215891 2.2669497 3.4063213 4.4126389 5.34 6.42.28.31.58.61.89.92 1.5522554 1.5550881 3.1915606 3.0207805 4.91 4.39 2.5938777 2.1002013 5.3911038 3.9359856 8.35 5.48z" fill="#ff5364" fill-rule="nonzero"/><path id="Shape" d="m25.17 42.16c-1.1707849 2.6099873-1.8909734 5.3994497-2.13 8.25-1.9927727-1.342385-3.8967379-2.8121126-5.7-4.4.0698475-3.1568614.759591-6.2692019 2.03-9.16.28.31.58.61.89.92 1.5522554 1.5550881 3.1915606 3.0207805 4.91 4.39z" fill="#955ba5" fill-rule="nonzero"/><path id="Shape" d="m19.37 36.85c-1.270409 2.8907981-1.9601525 6.0031386-2.03 9.16-.89-.8-1.81-1.65-2.74-2.58-1.07-1.0666667-2.0433333-2.1133333-2.92-3.14.103583-3.4124212.9032692-6.7677002 2.35-9.86 1.6215891 2.2669497 3.4063213 4.4126389 5.34 6.42z" fill="#b49aca" fill-rule="nonzero"/><path id="Shape" d="m10.95 56.24c-2.05.63-4.07 1.19-6 1.67-1.35699123.3373936-2.79154751-.0609492-3.78029915-1.0497008-.98875165-.9887517-1.38709445-2.423308-1.04970085-3.7802992.48-1.93 1.04-3.95 1.67-6 2.7109025 3.3775691 5.78243088 6.4490975 9.16 9.16z" fill="#ff5364" fill-rule="nonzero"/></g></g></svg>